<?xml version="1.0" encoding="UTF-8"?>
<svg width="108px" height="18px" viewBox="0 0 108 18" version="1.1" xmlns="http://www.w3.org/2000/svg" xmlns:xlink="http://www.w3.org/1999/xlink">
    <!-- Generator: Sketch 52.6 (67491) - http://www.bohemiancoding.com/sketch -->
    <title>Group</title>
    <desc>Created with Sketch.</desc>
    <g id="Page-1" stroke="none" stroke-width="1" fill="none" fill-rule="evenodd">
        <g id="Custom-Preset" transform="translate(-93.000000, -80.000000)">
            <g id="Group" transform="translate(93.000000, 76.000000)">
                <text id="Bike" font-family="GillSans, Arial" font-size="20" font-weight="normal" fill="#FFFFFF">
                    <tspan x="23" y="21">Bike</tspan>
                </text>
                <text id="Tribe" font-family="GillSans, Arial" font-size="20" font-weight="normal" fill="#FFFFFF">
                    <tspan x="58" y="21">Tribe</tspan>
                </text>
                <circle id="Oval" stroke="#FFFFFF" cx="15" cy="13" r="8"></circle>
                <path d="M15,5 L1.5,5" id="Line" stroke="#FFFFFF"></path>
                <circle id="Oval" stroke="#FFFFFF" cx="15" cy="13" r="1"></circle>
                <path d="M15,5 L15,11.5" id="Line-2" stroke="#FFFFFF" stroke-width="0.5" stroke-linecap="square"></path>
                <path d="M15,14 L15,20.5" id="Line-2" stroke="#FFFFFF" stroke-width="0.5" stroke-linecap="square"></path>
                <path d="M13.5,13 L7.5,13" id="Line-2" stroke="#FFFFFF" stroke-width="0.5" stroke-linecap="square"></path>
                <path d="M22.5,13 L16.5,13" id="Line-2" stroke="#FFFFFF" stroke-width="0.5" stroke-linecap="square"></path>
                <path d="M20.5,7.5 L16,12" id="Line-2" stroke="#FFFFFF" stroke-width="0.5" stroke-linecap="square"></path>
                <path d="M14,14 L9.5,18.5" id="Line-2" stroke="#FFFFFF" stroke-width="0.5" stroke-linecap="square"></path>
                <path d="M14,12 L9.5,7.5" id="Line-2" stroke="#FFFFFF" stroke-width="0.5" stroke-linecap="square"></path>
                <path d="M20.5,18.5 L16,14" id="Line-2" stroke="#FFFFFF" stroke-width="0.5" stroke-linecap="square"></path>
                <path d="M7.5,11 L3.5,11" id="Line" stroke="#FFFFFF"></path>
                <path d="M4.5,11 L2.5,11" id="Line" stroke="#FFFFFF" stroke-linecap="round"></path>
                <path d="M3.5,8 L1.5,8" id="Line" stroke="#FFFFFF" stroke-linecap="round"></path>
                <path d="M2.5,5 L0.5,5" id="Line" stroke="#FFFFFF" stroke-linecap="round"></path>
                <path d="M8.5,8 L2.5,8" id="Line" stroke="#FFFFFF" stroke-linejoin="round"></path>
            </g>
        </g>
    </g>
</svg>